#!OML:ASF E:/inclinewalkrobotboard/Project1/Captureday1/Session1/subject1.ASF
:FULLY-SPECIFIED
:DEGREES
76
root 0 0 0 0.4608937361795231 -3.165362527337946 1.2560824726232502
lowerback 11.50434010307932 0.6326211996424239 -0.531666401595683
upperback -2.7784688716673283 0.7991681430003297 0.017189807573135818
thorax -9.449849144491566 0.3567527827796147 0.19806769774648236
lowerneck -9.800735779658996 0.26185630562122864 2.3753226194686534
upperneck 18.551641632958408 1.1309804741314267 -5.5037481166094775
head 7.4470064459408825 0.27281961929719634 -2.089806502513896
rclavicle 2.1282765722240633E-16 -7.36775220132827E-16
rhumerus 2.5815091719296888 3.4383171064786815 -59.56568841668491
rradius 56.1957969210187
rwrist 17.539355673563428
rhand -28.400293023631043 -27.54410817238689
rfingers 7.125019999999986
rthumb -1.7676834430132073 -57.7825706104384
lclavicle -8.336997680407079E-16 -1.733415609860793E-16
lhumerus 3.077456501922832 -9.600928439301498 59.03404485617074
lradius 55.77654006444435
lwrist -11.273956147295243
lhand -38.8624351439911 -35.99633653805742
lfingers 7.125019999999983
lthumb -11.803370630148915 -6.304869342299
rfemur -25.27743425713231 1.7966778330562323 20.030339224544637
rtibia 47.69831490805127
rfoot -7.339405346995921 -9.859449092695435
rtoes -1.4407668624846333
lfemur -14.87662809448194 -0.33114815255144936 -17.191601995710496
ltibia 42.39657762331018
lfoot -6.083689306951572 -4.707977855797821
ltoes -6.211221421137135
77
root 0 0 0 0.4606100640398787 -3.166490129494665 1.2548351301048342
lowerback 11.50450817191154 0.6332752244497915 -0.5300768021166405
upperback -2.778383224546956 0.8002079497315551 0.017165169443571937
thorax -9.44983931344909 0.3572140135700398 0.19709457876777192
lowerneck -9.800809508268992 0.2615092903651717 2.375295496281894
upperneck 18.552471236271852 1.1306504752295221 -5.503778190742086
head 7.447320626562662 0.2726352076397771 -2.0898703712197637
rclavicle 2.125232780555376E-16 -7.381762124111017E-16
rhumerus 2.581662583342144 3.438358078353188 -59.565572404643575
rradius 56.19611923392848
rwrist 17.539638025719093
rhand -28.40037429643384 -27.54460120857478
rfingers 7.125019999999986
rthumb -1.767870266017189 -57.783452720523094
lclavicle -8.352892835640875E-16 -1.749728611778186E-16
lhumerus 3.073658117693256 -9.599801757396678 59.036438562105936
lradius 55.773966065491976
lwrist -11.272077055229756
lhand -38.86125013195745 -35.990459119538286
lfingers 7.125019999999983
lthumb -11.802333598617178 -6.298096437762105
rfemur -25.284213743584296 1.7938619724565805 20.02649796497657
rtibia 47.71595917223863
rfoot -7.331146677827841 -9.858353884787125
rtoes -1.437176963508406
lfemur -14.872965932668636 -0.32217134594782815 -17.187883268814325
ltibia 42.45793382020974
lfoot -6.063289203592766 -4.732547877837054
ltoes -6.22351767052796
78
root 0 0 0 0.46063893334760575 -3.1655121445925567 1.2565714965383694
lowerback 11.504625062097016 0.6326402855918304 -0.5317875750016946
upperback -2.778510295931086 0.7991293765443641 0.017051200435746372
thorax -9.450078306297897 0.35672954960314796 0.19815532176266837
lowerneck -9.800343472393124 0.2617547206503148 2.3754246737157443
upperneck 18.552630971394592 1.1310798615928919 -5.504174645315064
head 7.447322085971146 0.27282857751588896 -2.0899712373292507
rclavicle 2.1266446059948397E-16 -7.381220918902913E-16
rhumerus 2.5817475991136263 3.4383579195343614 -59.56541154750562
rradius 56.19623299719212
rwrist 17.539742407836783
rhand -28.400403118852115 -27.54480875544912
rfingers 7.125019999999986
rthumb -1.7679214486854997 -57.78368255757669
lclavicle -8.353092905539438E-16 -1.7503239440595356E-16
lhumerus 3.07265546833435 -9.599475889608753 59.03712804841723
lradius 55.77309975487617
lwrist -11.271654640569873
lhand -38.86089782387024 -35.988905354304954
lfingers 7.125019999999983
lthumb -11.802004230625093 -6.296522899049933
rfemur -25.312574826267678 1.7858865074437165 20.012279461348125
rtibia 47.75276986872341
rfoot -7.315725043738112 -9.86112327897249
rtoes -1.4368055474276553
lfemur -14.873606066207369 -0.31544802193118837 -17.183676981314946
ltibia 42.505336984529805
lfoot -6.046761028888131 -4.750369155338057
ltoes -6.232299377506597
79
root 0 0 0 0.46075636822386823 -3.163664671389248 1.2597053870917
lowerback 11.504788815244302 0.6314518872579746 -0.5349379787126877
upperback -2.7787565450584872 0.7971302781609876 0.016866234255983548
thorax -9.450490485246185 0.35583284287934036 0.20010672971741994
lowerneck -9.799540404794428 0.2622416029160677 2.3756587100349025
upperneck 18.552726371056877 1.131874137466132 -5.504844715872812
head 7.447253926200935 0.27319152173148975 -2.0901315464381476
rclavicle 2.1268633979470494E-16 -7.380589521578119E-16
rhumerus 2.5817704648080166 3.438311945552252 -59.56535083291336
rradius 56.19624307211343
rwrist 17.539813906056096
rhand -28.400408362450847 -27.544872730712438
rfingers 7.125019999999986
rthumb -1.767939757533746 -57.78375143939222
lclavicle -8.352806493633016E-16 -1.7492702831138972E-16
lhumerus 3.0734320430903317 -9.599677586360917 59.03659180529928
lradius 55.773687623834704
lwrist -11.272039067623998
lhand -38.86115868913031 -35.990217240827405
lfingers 7.125019999999983
lthumb -11.802247564751545 -6.2978692918478245
rfemur -25.35046598491152 1.7760283768789717 19.993527272069347
rtibia 47.79342085508589
rfoot -7.300816364607722 -9.866739248192468
rtoes -1.440704153655958
lfemur -14.88031873458098 -0.30828290152595694 -17.176915875487804
ltibia 42.556089035695315
lfoot -6.028849071510648 -4.767747016188767
ltoes -6.240361183582919
80
root 0 0 0 0.46068298850922407 -3.1666582984222167 1.2537803489349197
lowerback 11.504208497070971 0.6334527707454489 -0.5294061392004717
upperback -2.7781811436476693 0.8005686288981756 0.017367868638105133
thorax -9.449421830023388 0.3573814872600722 0.1967256704286381
lowerneck -9.801525389029969 0.2613941551528991 2.3750150064935958
upperneck 18.55167984564749 1.1302525272578423 -5.503083036590303
head 7.447136739666613 0.27248897020461516 -2.089632324916656
rclavicle 2.1277709920832188E-16 -7.367747096536324E-16
rhumerus 2.5810135726819254 3.4379821153697154 -59.565980665052706
rradius 56.195349745564
rwrist 17.53913962568446
rhand -28.400137048739015 -27.54335576021732
rfingers 7.125019999999986
rthumb -1.767535308121471 -57.78178520856904
lclavicle -8.336687079609481E-16 -1.734903884983488E-16
lhumerus 3.0748130999305587 -9.600172344578247 59.03587723405957
lradius 55.77446876257731
lwrist -11.272734174851903
lhand -38.86155144072512 -35.99198786536824
lfingers 7.125019999999983
lthumb -11.802526945770833 -6.300331042168253
rfemur -25.243997800522926 1.8049167015915493 20.046739746094737
rtibia 47.66724461697887
rfoot -7.3495646740857214 -9.85346820764877
rtoes -1.435033449220072
lfemur -14.860169746533112 -0.33816721245900516 -17.20180947778283
ltibia 42.34733567895948
lfoot -6.100184119773118 -4.694112472840618
ltoes -6.20456970055644
